<svg width="89" height="89" viewBox="0 0 89 89" fill="none" xmlns="http://www.w3.org/2000/svg">
<g id="planet-earth 1" clip-path="url(#clip0)">
<g id="Group">
<g id="Group_2">
<path id="Vector" d="M67.3869 80.6592C66.9054 79.8293 65.8421 79.5467 65.0112 80.0282L64.9443 80.0668C64.1141 80.5484 63.8316 81.6121 64.3131 82.4425C64.6356 82.9982 65.2187 83.3087 65.8181 83.3087C66.114 83.3087 66.4143 83.2327 66.6888 83.0735L66.7557 83.0349C67.5859 82.5532 67.8684 81.4895 67.3869 80.6592Z" fill="black"/>
</g>
</g>
<g id="Group_3">
<g id="Group_4">
<path id="Vector_2" d="M83.037 22.2647C77.0952 11.9732 67.5014 4.61172 56.0229 1.536C44.5446 -1.53971 32.5554 0.0388211 22.2639 5.98044C11.9726 11.9221 4.61093 21.516 1.53539 32.9944C-1.54015 44.4728 0.038209 56.4622 5.97983 66.7535C11.3096 75.985 19.7806 83.0009 29.8323 86.5084C34.5972 88.1709 39.5712 89.0006 44.5377 89.0006C49.9377 89.0006 55.3279 88.0191 60.423 86.061C61.3191 85.7166 61.7661 84.711 61.4216 83.8149C61.0771 82.9188 60.0713 82.4712 59.1756 82.8163C45.6135 88.0289 30.9316 85.6604 19.9626 77.4269L21.5199 69.2978L22.2703 69.0541C25.106 68.1328 26.6635 65.0762 25.7425 62.2404L25.1918 60.5458C25.0644 60.1536 25.0651 59.739 25.1936 59.3472C25.6766 57.8745 25.504 56.2633 24.7199 54.9263C23.9358 53.5893 22.6138 52.6519 21.0926 52.3545L17.1693 51.5879L9.59945 45.8324C9.14593 45.4876 8.55231 45.3869 8.01032 45.5628L3.57839 47.0025C3.48435 45.4173 3.48296 43.8327 3.57231 42.2564C3.74718 42.4193 3.86104 42.5301 3.93109 42.6027C4.01783 42.7472 4.12526 42.8796 4.25111 42.9943C4.61302 43.3239 4.94086 43.4734 5.62922 43.4734C6.26178 43.4732 7.19819 43.3472 8.74439 43.1188C10.2108 42.902 11.6696 42.6578 11.684 42.6554C12.2686 42.5575 12.7628 42.1681 12.9954 41.6232C13.2279 41.0781 13.1666 40.4521 12.8327 39.9623L10.7013 36.8361L13.7541 34.6532C13.9575 34.5077 14.1272 34.3202 14.2514 34.1032L18.9836 25.842L20.891 23.7982C22.8401 21.7091 23.3964 18.6527 22.3079 16.0112C21.6657 14.4532 20.5442 13.1561 19.1414 12.2819C20.6607 11.0875 22.2806 9.98474 24.0022 8.99097C30.3187 5.34405 37.2121 3.57674 44.0329 3.50912L40.929 7.4027L29.419 11.4378C28.9516 11.6015 28.5761 11.9572 28.3873 12.415L25.1729 20.2074C24.9447 20.761 25.0171 21.3927 25.365 21.8801L30.0597 28.4564C29.3873 29.0698 28.7329 29.9633 27.9512 31.0727C27.6084 31.5592 27.2847 32.0187 27.061 32.2763C26.8665 32.5005 26.6718 32.7195 26.4789 32.9365C25.4691 34.0724 24.4251 35.2474 23.6834 36.8167C22.0525 40.2687 22.3819 44.281 24.5429 47.2879C26.6325 50.1952 30.0774 51.6731 33.7543 51.2406C34.3533 51.1703 34.9118 51.0322 35.4522 50.8983C36.9424 50.5296 37.4146 50.4928 37.8926 50.9402C38.1252 51.158 38.1465 51.1992 38.1419 51.9378C38.1386 52.4078 38.1349 52.9926 38.2969 53.6603C38.5564 54.7284 39.2272 55.4667 39.7661 56.0598C40.034 56.3544 40.3111 56.6593 40.3964 56.8639C40.9386 58.1631 40.7025 58.8826 40.1852 60.4592C40.1409 60.5941 40.0957 60.7318 40.0503 60.8729C39.2644 63.3056 40.3599 65.7187 41.3264 67.8474C41.6403 68.5387 41.9367 69.1913 42.1309 69.768C43.6938 74.4056 44.8654 75.4677 45.8056 75.8953C46.298 76.1192 46.8077 76.2174 47.3226 76.2172C49.8283 76.2171 52.443 73.8905 53.6442 72.4156C54.3986 71.4895 54.5844 70.5621 54.72 69.8847C54.7876 69.5478 54.8408 69.2818 54.9423 69.108C55.0978 68.8421 55.2808 68.6359 55.5125 68.3748C55.9785 67.85 56.5586 67.1971 56.9342 66.0135C57.2197 65.1145 57.427 64.8941 58.1138 64.1626C58.2334 64.0355 58.3608 63.8996 58.4976 63.7508C60.8129 61.2315 60.2166 59.3071 59.5851 57.2695C59.0537 55.555 59.9832 54.4585 62.2304 52.3658C63.2046 51.4586 64.2117 50.5206 64.9903 49.3935C65.331 48.9002 66.3675 47.3995 65.7261 45.912C65.0974 44.4536 63.4994 44.2085 62.2155 44.0118C61.7084 43.9339 60.9422 43.8164 60.6983 43.657C59.6228 42.9538 58.9649 41.4864 58.3285 40.0671C58.2018 39.7846 58.0768 39.5058 57.9501 39.2351C57.7241 38.7522 57.4983 38.168 57.2593 37.5495C56.6269 35.9128 55.9102 34.0575 54.6901 32.7642C53.5934 31.6022 51.5261 31.0425 49.7021 30.5484C49.0887 30.3824 48.5097 30.2256 48.1278 30.0847C47.8077 29.9665 47.4604 29.9451 47.1291 30.0229C46.2414 30.231 45.6876 30.4603 45.2763 30.7899C45.1676 30.877 44.8459 31.1629 44.6575 31.6225C44.0211 31.3171 43.146 30.7339 42.6075 30.375C42.5964 30.3675 42.5851 30.36 42.574 30.3525C42.7554 29.6263 42.5912 29.0434 42.4191 28.6794C41.4481 26.6255 38.2248 26.7863 37.5889 26.8403C37.2277 26.8706 36.7707 26.8867 36.2873 26.9038C35.528 26.9307 34.6888 26.961 33.8584 27.0541L33.9011 26.9349C34.5314 25.1787 36.2085 23.9988 38.0744 23.9988H39.0626C40.0223 23.9988 40.8007 23.2204 40.8007 22.2607C40.8007 21.301 40.0223 20.5225 39.0626 20.5225H38.0744C35.3043 20.5225 32.7676 21.9804 31.3459 24.2751L28.7532 20.6434L31.304 14.4605L42.5512 10.5174C42.8595 10.4092 43.1314 10.2163 43.3353 9.96058L48.3351 3.68904C61.1105 4.90427 73.1359 12.067 80.0268 24.0024C81.8622 27.1816 83.22 30.5284 84.1227 33.9516L83.3858 34.6087C82.424 35.4669 81.8605 36.6978 81.8389 37.986C81.8388 38.0001 81.8384 38.014 81.8379 38.0279L80.6375 34.7266C80.4586 34.2339 80.1951 33.7822 79.8547 33.3839L77.7133 30.8768C76.8831 29.9049 75.6743 29.3478 74.3965 29.3478H71.7753C70.8448 29.3478 69.9945 29.8575 69.5556 30.6774C69.1166 31.4975 69.1646 32.488 69.6807 33.2619L69.946 33.6601C68.2522 35.1166 66.2932 36.2822 64.2072 37.0682L60.6142 30.1858V28.6504C60.6142 28.1755 60.4198 27.7209 60.0762 27.3933L56.8407 24.3045C56.6622 24.1342 56.4494 24.0038 56.2167 23.9219L53.3042 22.8984C52.398 22.5796 51.4062 23.0564 51.0881 23.9619C50.7698 24.8677 51.2459 25.8598 52.1515 26.178L54.711 27.0776L57.138 29.3942V30.6124C57.138 30.8924 57.2058 31.1685 57.3354 31.4169L61.8336 40.033C62.2381 40.8083 63.1562 41.1625 63.9757 40.8594L65.2855 40.3765C68.3283 39.2543 71.1487 37.4491 73.4418 35.1563C74.0276 34.5703 74.1187 33.6527 73.6589 32.9631L73.5665 32.8242H74.3965C74.656 32.8242 74.9016 32.9374 75.0703 33.1348L77.2116 35.6419C77.2807 35.7228 77.334 35.8142 77.3705 35.9145L79.7337 42.4127C79.9367 42.9711 80.4109 43.3869 80.9905 43.5155C81.1156 43.5431 81.2417 43.5567 81.367 43.5567C81.823 43.5567 82.2667 43.3771 82.596 43.0475L83.7208 41.9227C84.4332 41.2102 84.9235 40.3087 85.1578 39.3094C86.8975 53.2512 81.4308 67.6734 69.8757 76.7427C69.1205 77.3353 68.9887 78.4278 69.5816 79.1831C70.1742 79.9384 71.2665 80.0701 72.022 79.4772C80.3644 72.9296 86.0955 63.5646 88.1597 53.1073C90.2432 42.5492 88.4241 31.5954 83.037 22.2647ZM8.21926 49.1501L15.3867 54.5998C15.5986 54.7609 15.8444 54.8711 16.1055 54.9221L20.4255 55.7662C20.9769 55.874 21.4368 56.2001 21.721 56.6847C22.0052 57.1692 22.065 57.7298 21.8901 58.2636C21.5303 59.361 21.5286 60.5216 21.8854 61.6197L22.4361 63.3142C22.7652 64.3269 22.2086 65.4187 21.196 65.7477L19.4687 66.309C18.8661 66.5048 18.4179 67.013 18.2989 67.635L16.9086 74.8921C13.8522 72.0947 11.1686 68.7885 8.99036 65.0156C6.33287 60.4131 4.67247 55.5041 3.94065 50.5402L8.21926 49.1501ZM18.3494 21.4265L16.3047 23.6172C16.2134 23.7151 16.1337 23.8232 16.0671 23.9393L11.4238 32.046L7.29692 34.9969C6.52826 35.5465 6.33948 36.6091 6.87174 37.39L8.41516 39.6539C7.52551 39.7864 6.72712 39.8955 6.19624 39.9534C6.09421 39.8555 5.98748 39.7563 5.8771 39.6537C5.46391 39.2699 4.88975 38.7573 4.03382 38.0083C5.44548 29.2711 9.6556 21.04 16.2771 14.757C17.545 15.1563 18.5855 16.1021 19.0938 17.3358C19.6657 18.7233 19.3733 20.3291 18.3494 21.4265ZM32.5216 30.9249C33.2969 30.4886 35.0964 30.4248 36.4102 30.3783C36.9367 30.3597 37.4342 30.3419 37.8785 30.3047C38.113 30.2851 38.3734 30.2887 38.619 30.3079C38.5093 30.5895 38.4737 30.8985 38.5213 31.2052C38.6049 31.7445 38.9375 32.213 39.4186 32.4705C39.7447 32.645 40.1986 32.9476 40.679 33.268C42.0375 34.1736 43.5775 35.2001 45.0241 35.2922C46.3396 35.3775 47.0716 34.6278 47.3852 34.3085C47.4102 34.2831 47.4338 34.2577 47.4589 34.2346C47.6355 34.0907 47.801 33.8978 47.924 33.665C48.202 33.7444 48.494 33.8235 48.7933 33.9047C49.8226 34.1833 51.7383 34.7021 52.1616 35.1505C52.9134 35.9475 53.4994 37.4645 54.0165 38.8028C54.2778 39.4792 54.5246 40.1175 54.8015 40.7094C54.9204 40.9633 55.0374 41.225 55.1563 41.4899C55.9584 43.2789 56.8675 45.3068 58.7961 46.5674C59.6706 47.1391 60.7426 47.3034 61.6886 47.4485C61.803 47.4661 61.9341 47.4862 62.0672 47.5081C61.5057 48.2914 60.7063 49.0357 59.8617 49.8223C57.7099 51.8262 55.0319 54.3203 56.2652 58.299C56.8473 60.1778 56.8744 60.3808 55.9384 61.3991C55.8108 61.538 55.6919 61.6645 55.5805 61.7831C54.7788 62.6366 54.1455 63.3107 53.6213 64.962C53.469 65.4416 53.2717 65.6638 52.9134 66.0671C52.627 66.3897 52.2701 66.7916 51.941 67.3548C51.5468 68.0296 51.4164 68.6794 51.3119 69.2014C51.2089 69.715 51.1505 69.9728 50.9488 70.2203C50.4897 70.7839 49.6335 71.6023 48.7544 72.1608C47.9374 72.6795 47.4604 72.7504 47.2979 72.7407C47.1124 72.5418 46.4406 71.6711 45.4254 68.6581C45.1751 67.9149 44.8278 67.15 44.492 66.4104C43.7516 64.7799 42.9863 63.0937 43.3586 61.9414C43.4026 61.8055 43.446 61.6727 43.4888 61.5428C44.0836 59.7298 44.6451 58.0178 43.6049 55.5251C43.2882 54.766 42.7839 54.2113 42.3395 53.7218C42.0518 53.4053 41.7258 53.0465 41.6756 52.84C41.6144 52.5881 41.6163 52.2973 41.6186 51.9606C41.6245 51.0523 41.6335 49.6799 40.2692 48.4023C38.3456 46.6018 36.1025 47.1565 34.618 47.5236C34.1621 47.6363 33.7313 47.743 33.3496 47.7878C30.9077 48.074 28.7275 47.1527 27.3664 45.2586C25.9426 43.2775 25.7359 40.6115 26.8272 38.3013C27.3555 37.1834 28.1535 36.2853 29.0776 35.2458C29.2794 35.0186 29.4831 34.7895 29.6869 34.5548C30.0258 34.1641 30.3989 33.6349 30.7933 33.0747C31.2642 32.4063 32.141 31.1617 32.5216 30.9249Z" fill="black"/>
</g>
</g>
<g id="Group_5">
<g id="Group_6">
<path id="Vector_3" d="M71.2734 59.8452L70.4371 56.693C70.2544 56.0046 69.6703 55.4974 68.9634 55.4129C68.2555 55.3302 67.5691 55.6841 67.2293 56.31C67.0388 56.6612 66.8672 57.0332 66.7014 57.3928C66.4224 57.9979 66.1338 58.6237 65.8336 58.9691C65.665 59.1631 65.2318 59.3722 64.8132 59.5742C63.8125 60.0571 62.4419 60.7185 61.9183 62.3876C61.5932 63.4229 61.7146 64.242 61.8032 64.84C61.8799 65.3585 61.8976 65.5382 61.7587 65.8643L61.7413 65.9048C61.188 67.2032 60.1586 69.6202 61.6021 71.6751C62.632 73.1415 63.715 73.5185 64.5565 73.5185C64.7208 73.519 64.8762 73.5046 65.0199 73.4811C66.793 73.1914 68.1259 71.347 69.2151 67.6765L71.2596 60.7858C71.3506 60.4793 71.3554 60.1539 71.2734 59.8452ZM65.8826 66.6876C65.3274 68.559 64.8362 69.4327 64.5527 69.82C64.52 69.7782 64.4845 69.731 64.4466 69.6769C64.1144 69.2037 64.6109 68.0384 64.9394 67.2671L64.957 67.2264C65.4868 65.9829 65.3451 65.0279 65.2421 64.3305C65.1758 63.8839 65.1522 63.692 65.2351 63.4283C65.3033 63.2115 65.7105 63.0012 66.3241 62.705C66.5962 62.5736 66.8957 62.4291 67.198 62.2543L65.8826 66.6876Z" fill="black"/>
</g>
</g>
<g id="Group_7">
<g id="Group_8">
<path id="Vector_4" d="M46.9388 20.6612L46.8215 20.6202C45.9163 20.3031 44.9238 20.7793 44.606 21.6851C44.2883 22.5911 44.7651 23.5828 45.6709 23.9005L45.7881 23.9415C45.9784 24.0083 46.1724 24.0399 46.3634 24.0399C47.081 24.0399 47.7527 23.592 48.0037 22.8767C48.3214 21.9707 47.8446 20.9788 46.9388 20.6612Z" fill="black"/>
</g>
</g>
</g>
<defs>
<clipPath id="clip0">
<rect width="89" height="89" fill="white"/>
</clipPath>
</defs>
</svg>
