<svg width="67" height="67" viewBox="0 0 67 67" fill="none" xmlns="http://www.w3.org/2000/svg">
<g id="instagram 1">
<path id="Vector" d="M48.4075 15.2425C47.7449 15.2425 47.0972 15.439 46.5463 15.8071C45.9954 16.1752 45.566 16.6984 45.3125 17.3106C45.0589 17.9227 44.9926 18.5963 45.1218 19.2461C45.2511 19.8959 45.5702 20.4928 46.0387 20.9613C46.5072 21.4299 47.1041 21.7489 47.7539 21.8782C48.4038 22.0074 49.0773 21.9411 49.6895 21.6875C50.3016 21.434 50.8248 21.0046 51.1929 20.4537C51.561 19.9028 51.7575 19.2551 51.7575 18.5925C51.7575 17.7041 51.4045 16.852 50.7763 16.2237C50.148 15.5955 49.296 15.2425 48.4075 15.2425ZM61.2491 21.9984C61.1949 19.6821 60.761 17.3905 59.965 15.2146C59.2551 13.353 58.1504 11.6672 56.7266 10.2734C55.3443 8.84244 53.6546 7.74462 51.7854 7.06296C49.6153 6.24266 47.3211 5.79892 45.0016 5.75087C42.0425 5.58337 41.0933 5.58337 33.5 5.58337C25.9066 5.58337 24.9575 5.58337 21.9983 5.75087C19.6789 5.79892 17.3846 6.24266 15.2146 7.06296C13.3488 7.75152 11.6606 8.8484 10.2733 10.2734C8.84238 11.6557 7.74456 13.3454 7.0629 15.2146C6.2426 17.3847 5.79886 19.6789 5.75081 21.9984C5.58331 24.9575 5.58331 25.9067 5.58331 33.5C5.58331 41.0934 5.58331 42.0425 5.75081 45.0017C5.79886 47.3212 6.2426 49.6154 7.0629 51.7855C7.74456 53.6546 8.84238 55.3443 10.2733 56.7267C11.6606 58.1517 13.3488 59.2486 15.2146 59.9371C17.3846 60.7574 19.6789 61.2012 21.9983 61.2492C24.9575 61.4167 25.9066 61.4167 33.5 61.4167C41.0933 61.4167 42.0425 61.4167 45.0016 61.2492C47.3211 61.2012 49.6153 60.7574 51.7854 59.9371C53.6546 59.2555 55.3443 58.1576 56.7266 56.7267C58.1567 55.3381 59.2624 53.6508 59.965 51.7855C60.761 49.6096 61.1949 47.318 61.2491 45.0017C61.2491 42.0425 61.4166 41.0934 61.4166 33.5C61.4166 25.9067 61.4166 24.9575 61.2491 21.9984ZM56.2241 44.6667C56.2038 46.4388 55.8829 48.1945 55.275 49.8592C54.8292 51.0741 54.1133 52.1719 53.1812 53.0696C52.2757 53.9923 51.1802 54.7068 49.9708 55.1634C48.3061 55.7713 46.5504 56.0922 44.7783 56.1125C41.9866 56.2521 40.9537 56.28 33.6116 56.28C26.2696 56.28 25.2366 56.28 22.445 56.1125C20.605 56.147 18.7728 55.8637 17.0291 55.275C15.8728 54.7951 14.8275 54.0824 13.9583 53.1813C13.0317 52.2845 12.3248 51.1858 11.8925 49.9709C11.2109 48.2823 10.8329 46.4867 10.7758 44.6667C10.7758 41.875 10.6083 40.8421 10.6083 33.5C10.6083 26.158 10.6083 25.125 10.7758 22.3334C10.7883 20.5217 11.119 18.7264 11.7529 17.0292C12.2444 15.8509 12.9987 14.8005 13.9583 13.9584C14.8065 12.9985 15.8547 12.2362 17.0291 11.725C18.7308 11.111 20.5243 10.7901 22.3333 10.7759C25.125 10.7759 26.1579 10.6084 33.5 10.6084C40.8421 10.6084 41.875 10.6084 44.6666 10.7759C46.4387 10.7962 48.1945 11.1171 49.8591 11.725C51.1278 12.1959 52.2664 12.9613 53.1812 13.9584C54.0961 14.8159 54.8109 15.8643 55.275 17.0292C55.8954 18.7291 56.2166 20.5238 56.2241 22.3334C56.3637 25.125 56.3916 26.158 56.3916 33.5C56.3916 40.8421 56.3637 41.875 56.2241 44.6667ZM33.5 19.1788C30.6687 19.1843 27.9026 20.0289 25.5511 21.6059C23.1997 23.1829 21.3685 25.4215 20.2888 28.0389C19.2091 30.6562 18.9295 33.5348 19.4852 36.3111C20.041 39.0873 21.4071 41.6365 23.4111 43.6365C25.4151 45.6366 27.9669 46.9978 30.7442 47.5481C33.5215 48.0985 36.3996 47.8132 39.0148 46.7285C41.6301 45.6437 43.8651 43.8081 45.4375 41.4536C47.0099 39.0991 47.8491 36.3313 47.8491 33.5C47.8528 31.616 47.484 29.7497 46.7639 28.0087C46.0437 26.2677 44.9865 24.6862 43.6529 23.3553C42.3194 22.0243 40.7358 20.9701 38.9934 20.2534C37.251 19.5366 35.3841 19.1714 33.5 19.1788ZM33.5 42.7963C31.6614 42.7963 29.864 42.2511 28.3353 41.2296C26.8065 40.2081 25.615 38.7562 24.9114 37.0576C24.2078 35.3589 24.0237 33.4897 24.3824 31.6864C24.7411 29.8831 25.6264 28.2267 26.9265 26.9266C28.2266 25.6265 29.8831 24.7411 31.6864 24.3824C33.4897 24.0237 35.3588 24.2078 37.0575 24.9114C38.7562 25.615 40.208 26.8066 41.2295 28.3353C42.251 29.8641 42.7962 31.6614 42.7962 33.5C42.7962 34.7208 42.5558 35.9297 42.0886 37.0576C41.6214 38.1854 40.9367 39.2102 40.0734 40.0735C39.2102 40.9367 38.1854 41.6215 37.0575 42.0887C35.9296 42.5558 34.7208 42.7963 33.5 42.7963Z" fill="black"/>
</g>
</svg>
