<svg width="521" height="521" viewBox="0 0 521 521" fill="none" xmlns="http://www.w3.org/2000/svg">
<g id="next 1">
<g id="Group">
<g id="Group_2">
<path id="Vector" d="M260.5 0C404.144 0 521 116.856 521 260.5C521 404.144 404.144 521 260.5 521C116.856 521 0 404.144 0 260.5C0 116.856 116.856 0 260.5 0ZM180.027 275.848L288.569 384.389C292.802 388.622 298.359 390.75 303.917 390.75C309.474 390.75 315.032 388.622 319.265 384.389C327.753 375.901 327.753 362.182 319.265 353.694L226.07 260.5L319.264 167.306C327.752 158.819 327.752 145.099 319.264 136.611C310.776 128.123 297.056 128.123 288.569 136.611L180.027 245.153C171.539 253.641 171.539 267.36 180.027 275.848Z" fill="black"/>
</g>
</g>
</g>
</svg>
