<svg width="74" height="74" viewBox="0 0 74 74" fill="none" xmlns="http://www.w3.org/2000/svg">
<g id="vk 1" clip-path="url(#clip0)">
<path id="Vector" d="M36.2555 53.035H40.4041C40.4041 53.035 41.6575 52.9055 42.2957 52.2626C42.8831 51.6706 42.8646 50.5606 42.8646 50.5606C42.8646 50.5606 42.7813 45.3529 45.3667 44.5897C47.9105 43.8359 51.1803 49.6171 54.6445 51.8417C57.2668 53.5252 59.2556 53.1552 59.2556 53.1552L68.5195 53.035C68.5195 53.035 73.3665 52.7575 71.0678 49.1916C70.8782 48.9002 69.7312 46.5554 64.1812 41.7407C58.3722 36.6995 59.1492 37.5135 66.1469 28.7954C70.4065 23.4859 72.1131 20.2437 71.5812 18.8562C71.0725 17.5335 67.9414 17.885 67.9414 17.885L57.512 17.9451C57.512 17.9451 56.7396 17.848 56.1661 18.1671C55.7754 18.4316 55.4587 18.7914 55.2457 19.2124C55.2457 19.2124 53.5946 23.3194 51.3931 26.8159C46.7496 34.1881 44.8903 34.5812 44.1318 34.1234C42.3605 33.055 42.7998 29.8314 42.7998 27.5466C42.7998 20.401 43.9607 17.4225 40.5428 16.6501C39.4097 16.3911 38.5726 16.2246 35.6727 16.1969C31.9496 16.1599 28.8 16.2061 27.0193 17.0247C25.8307 17.5659 24.915 18.7776 25.4746 18.847C26.1637 18.9349 27.7223 19.2401 28.5502 20.2946C29.6186 21.6544 29.5816 24.7069 29.5816 24.7069C29.5816 24.7069 30.1967 33.1197 28.1478 34.165C26.7418 34.8819 24.8132 33.4204 20.6738 26.728C18.551 23.3009 16.9507 19.513 16.9507 19.513C16.9507 19.513 16.6408 18.8054 16.0905 18.4261C15.4198 17.9682 14.4856 17.8202 14.4856 17.8202L4.57422 17.885C4.57422 17.885 3.08497 17.922 2.53922 18.5279C2.05359 19.0644 2.50222 20.179 2.50222 20.179C2.50222 20.179 10.263 37.1527 19.0505 45.709C27.1072 53.5484 36.2555 53.035 36.2555 53.035Z" stroke="black" stroke-width="6" stroke-miterlimit="10"/>
</g>
<defs>
<clipPath id="clip0">
<rect width="74" height="74" fill="white"/>
</clipPath>
</defs>
</svg>
