<svg width="71" height="71" viewBox="0 0 71 71" fill="none" xmlns="http://www.w3.org/2000/svg">
<g id="whatsapp 1">
<path id="path4" d="M49.1083 41.4166C48.5166 41.1208 44.6708 39.3458 44.0791 39.0499C43.4875 38.7541 42.8958 38.7541 42.3041 39.3458C41.7125 39.9374 40.5291 41.7124 39.9375 42.3041C39.6416 42.8958 39.05 42.8958 38.4583 42.5999C36.3875 41.7124 34.3166 40.5291 32.5416 39.0499C31.0625 37.5708 29.5833 35.7958 28.4 34.0208C28.1041 33.4291 28.4 32.8374 28.6958 32.5416C28.9916 32.2458 29.2875 31.6541 29.8791 31.3583C30.175 31.0624 30.4708 30.4708 30.4708 30.1749C30.7666 29.8791 30.7666 29.2874 30.4708 28.9916C30.175 28.6958 28.6958 25.1458 28.1041 23.6666C27.8083 21.5958 27.2166 21.5958 26.625 21.5958C26.3291 21.5958 25.7375 21.5958 25.1458 21.5958C24.5541 21.5958 23.6666 22.1874 23.3708 22.4833C21.5958 24.2583 20.7083 26.3291 20.7083 28.6958C21.0041 31.3583 21.8916 34.0208 23.6666 36.3874C26.9208 41.1208 31.0625 44.9666 36.0916 47.3333C37.5708 47.9249 38.7541 48.5166 40.2333 48.8124C41.7125 49.4041 43.1916 49.4041 44.9666 49.1083C47.0375 48.8124 48.8125 47.3333 49.9958 45.5583C50.5875 44.3749 50.5875 43.1916 50.2916 42.0083C50.2916 42.0083 49.7 41.7124 49.1083 41.4166ZM56.5041 14.4958C44.9666 2.95828 26.3291 2.95828 14.7916 14.4958C5.32496 23.9624 3.54996 38.4583 10.0583 49.9958L5.91663 65.0833L21.5958 60.9416C26.0333 63.3083 30.7666 64.4916 35.5 64.4916C51.7708 64.4916 64.7875 51.4749 64.7875 35.2041C65.0833 27.5124 61.8291 20.1166 56.5041 14.4958ZM48.5166 55.9124C44.6708 58.2791 40.2333 59.7583 35.5 59.7583C31.0625 59.7583 26.9208 58.5749 23.075 56.5041L22.1875 55.9124L13.0166 58.2791L15.3833 49.4041L14.7916 48.5166C7.69163 36.6833 11.2416 21.8916 22.7791 14.4958C34.3166 7.09994 49.1083 10.9458 56.2083 22.1874C63.3083 33.7249 60.0541 48.8124 48.5166 55.9124Z" fill="black"/>
</g>
</svg>
